<svg xmlns="http://www.w3.org/2000/svg" viewBox="0 0 200 43.13">
  <g>
    <path d="M18.49,13.83c-2.89-1.62-5.11-2.26-5.11-4a2.81,2.81,0,0,1,3.08-2.62c1.67,0,3.57,1,5.83,2.94L26,3.75A15,15,0,0,0,16.14,0C9.27,0,4.56,4.57,4.56,10.9c0,4.06,2.4,6,6.65,8.27,2.85,1.49,4.52,2.21,4.52,4.11,0,1.68-1.31,2.9-3.57,2.9-2.76,0-5.11-1.41-7.68-4.16L0,28.48A14.18,14.18,0,0,0,11.17,34c8.45,0,13.38-4.65,13.38-11.44C24.55,18.31,22.65,16.14,18.49,13.83Z" fill="#fff"/>
    <path d="M192.49,13.83c-2.89-1.62-5.1-2.26-5.1-4a2.8,2.8,0,0,1,3.07-2.62c1.67,0,3.57,1,5.83,2.94L200,3.75A15,15,0,0,0,190.14,0c-6.87,0-11.57,4.57-11.57,10.9,0,4.06,2.4,6,6.65,8.27,2.84,1.49,4.52,2.21,4.52,4.11,0,1.68-1.31,2.9-3.57,2.9-2.76,0-5.11-1.41-7.69-4.16L174,28.48A14.18,14.18,0,0,0,185.17,34c8.46,0,13.38-4.65,13.38-11.44C198.55,18.31,196.66,16.14,192.49,13.83Z" fill="#fff"/>
    <polygon points="49.26 0.81 46.31 20.56 38.28 0.81 28.93 0.81 24.08 33.14 32.27 33.14 35.27 13.15 43.6 33.14 52.6 33.14 57.45 0.81 49.26 0.81" fill="#fff"/>
    <path d="M177,10.26c0-3.89-1.72-6.69-5-8.23C169.64.9,166.7.81,163,.81h-8.56l-1.66,11h8.69l.71-4.75h1.1c2.75,0,4.09.82,4.09,3s-1.41,3.48-4,3.48H140.41l.79-5.29h10.07L152.39.81H125.82L113.16,14.73,115.25.81h-8.19L103.32,26,98,.81H87.16L74.58,26H64.36l.81-5.38H75.28l3.51-7H66.22L67,8.27H81.43L85.17.81H59.45L54.6,33.14H80.38l2.79-5.53H94.88l1.19,5.53H110.4l2.19-14.57,15.65,24.56h10.21l-6.59-10h15.68L148.62,26H138.55l.81-5.38h12.06l-1.88,12.57h8.69L160,21.24l6,11.9h9.85L168,20.39C173.71,19.44,177,15.55,177,10.26ZM86.75,20.42l4.64-9.27,2,9.27Zm42.61,8.92-8.29-12.57,12-12Z" fill="#fff"/>
  </g>
</svg>
